<svg aria-hidden="true" style="position: absolute; width: 0; height: 0; overflow: hidden;" version="1.1" xmlns="http://www.w3.org/2000/svg" xmlns:xlink="http://www.w3.org/1999/xlink">
    <defs>
        <symbol id="icon-green" viewBox="0 0 60 32">
            <path fill="#00b068" style="fill: var(--color1, #00b068)" d="M2 14c-1.105 0-2 0.895-2 2s0.895 2 2 2v-4zM59.414 17.414c0.781-0.781 0.781-2.047 0-2.828l-12.728-12.728c-0.781-0.781-2.047-0.781-2.828 0s-0.781 2.047 0 2.828l11.314 11.314-11.314 11.314c-0.781 0.781-0.781 2.047 0 2.828s2.047 0.781 2.828 0l12.728-12.728zM2 18h56v-4h-56v4z"></path>
        </symbol>
        <symbol id="icon-Vector" viewBox="0 0 44 32">
            <path d="M.668 30.054v-2.667h42.667v2.667H.668zm0-12.72v-2.667h42.667v2.667H.668zm0-12.72V1.947h42.667v2.667H.668z"/>
        </symbol>
    </defs>
  <defs>
 <symbol id="arrow-right" viewBox="0 0 32 32">
  <g stroke-linejoin="round" stroke-linecap="round" stroke-miterlimit="4" stroke-width="2.6667">
    <path d="M5.333 16h21.333"></path>
    <path d="M18.667 8l8 8-8 8"></path>
  </g>
</symbol>

<symbol id="arrow-left" viewBox="0 0 32 32">
  <g fill="none" stroke="currentColor" stroke-linejoin="round" stroke-linecap="round" stroke-miterlimit="4" stroke-width="2.6667">
    <path d="M26.667 16h-21.333"></path>
    <path d="M13.333 24l-8-8 8-8"></path>
  </g>
</symbol>
</defs>

</svg>