<svg aria-hidden="true" style="position: absolute; width: 0; height: 0; overflow: hidden;" version="1.1" xmlns="http://www.w3.org/2000/svg" xmlns:xlink="http://www.w3.org/1999/xlink">
<defs>
<symbol id="iconx1" viewBox="0 0 32 32">
<path stroke-linejoin="round" stroke-linecap="round" stroke-miterlimit="4" stroke-width="2" d="M24 8l-16 16"></path>
<path stroke-linejoin="round" stroke-linecap="round" stroke-miterlimit="4" stroke-width="2" d="M8 8l16 16"></path>
</symbol>
<symbol id="iconGroup64" viewBox="0 0 41 32">
<path fill="#00b068" style="fill: var(--color1, #00b068)" d="M33.927 29.636h-1.735c-0.134 0-0.242-0.109-0.242-0.242v-1.735c0-0.134 0.109-0.242 0.242-0.242h1.735c0.134 0 0.242 0.109 0.242 0.242v1.735c0 0.134-0.109 0.242-0.242 0.242z"></path>
<path fill="#00b068" style="fill: var(--color1, #00b068)" d="M26.711 2.22h-1.735c-0.134 0-0.242-0.109-0.242-0.242v-1.735c0-0.134 0.109-0.242 0.242-0.242h1.735c0.134 0 0.242 0.109 0.242 0.242v1.735c0 0.134-0.109 0.242-0.242 0.242z"></path>
<path fill="#00b068" style="fill: var(--color1, #00b068)" d="M17.431 15.851h-0.625c-0.134 0-0.242-0.109-0.242-0.242v-0.625c0-0.134 0.109-0.242 0.242-0.242h0.625c0.134 0 0.242 0.109 0.242 0.242v0.625c0 0.134-0.109 0.242-0.242 0.242z"></path>
<path fill="#00b068" style="fill: var(--color1, #00b068)" d="M40.97 20.284h-0.625c-0.134 0-0.242-0.109-0.242-0.242v-0.625c0-0.134 0.109-0.242 0.242-0.242h0.625c0.134 0 0.242 0.109 0.242 0.242v0.625c0 0.134-0.109 0.242-0.242 0.242z"></path>
<path fill="#00b068" style="fill: var(--color1, #00b068)" d="M10.656 31.821h-1.735c-0.134 0-0.242-0.109-0.242-0.242v-1.735c0-0.134 0.109-0.242 0.242-0.242h1.735c0.134 0 0.242 0.109 0.242 0.242v1.735c0 0.134-0.109 0.242-0.242 0.242z"></path>
<path fill="#00b068" style="fill: var(--color1, #00b068)" d="M0.97 10.825h-0.625c-0.134 0-0.242-0.109-0.242-0.242v-0.625c0-0.134 0.109-0.242 0.242-0.242h0.625c0.134 0 0.242 0.109 0.242 0.242v0.625c0 0.134-0.109 0.242-0.242 0.242z"></path>
</symbol>
<symbol id="iconGroup68" viewBox="0 0 39 32">
<path fill="#00b068" style="fill: var(--color1, #00b068)" d="M30.691 14.631h-0.985c-0.067 0-0.121-0.054-0.121-0.121v-0.985c0-0.067 0.054-0.121 0.121-0.121h0.985c0.067 0 0.121 0.054 0.121 0.121v0.985c0 0.067-0.054 0.121-0.121 0.121z"></path>
<path fill="#00b068" style="fill: var(--color1, #00b068)" d="M25.802 1.227h-0.985c-0.067 0-0.121-0.054-0.121-0.121v-0.985c0-0.067 0.054-0.121 0.121-0.121h0.985c0.067 0 0.121 0.054 0.121 0.121v0.985c0 0.067-0.054 0.121-0.121 0.121z"></path>
<path fill="#00b068" style="fill: var(--color1, #00b068)" d="M36.428 19.591h-1.599c-0.067 0-0.121-0.054-0.121-0.121v-1.599c0-0.067 0.054-0.121 0.121-0.121h1.599c0.067 0 0.121 0.054 0.121 0.121v1.599c0 0.067-0.054 0.121-0.121 0.121z"></path>
<path fill="#00b068" style="fill: var(--color1, #00b068)" d="M21.455 8.221h-0.372c-0.067 0-0.121-0.054-0.121-0.121v-0.372c0-0.067 0.054-0.121 0.121-0.121h0.372c0.067 0 0.121 0.054 0.121 0.121v0.372c0 0.067-0.054 0.121-0.121 0.121z"></path>
<path fill="#00b068" style="fill: var(--color1, #00b068)" d="M38.481 10.67h-0.372c-0.067 0-0.121-0.054-0.121-0.121v-0.372c0-0.067 0.054-0.121 0.121-0.121h0.372c0.067 0 0.121 0.054 0.121 0.121v0.372c0 0.067-0.054 0.121-0.121 0.121z"></path>
<path fill="#00b068" style="fill: var(--color1, #00b068)" d="M10.274 28.187h-0.372c-0.067 0-0.121-0.054-0.121-0.121v-0.372c0-0.067 0.054-0.121 0.121-0.121h0.372c0.067 0 0.121 0.054 0.121 0.121v0.372c0 0.067-0.054 0.121-0.121 0.121z"></path>
<path fill="#00b068" style="fill: var(--color1, #00b068)" d="M17.711 17.046h-0.985c-0.067 0-0.121-0.054-0.121-0.121v-0.985c0-0.067 0.054-0.121 0.121-0.121h0.985c0.067 0 0.121 0.054 0.121 0.121v0.985c0 0.067-0.054 0.121-0.121 0.121z"></path>
<path fill="#00b068" style="fill: var(--color1, #00b068)" d="M12.76 5.444h-0.372c-0.067 0-0.121-0.054-0.121-0.121v-0.372c0-0.067 0.054-0.121 0.121-0.121h0.372c0.067 0 0.121 0.054 0.121 0.121v0.372c0 0.067-0.054 0.121-0.121 0.121z"></path>
</symbol>
</defs>
</svg>
